<mxfile host="app.diagrams.net" modified="2023-09-29T08:52:01.853Z" agent="Mozilla/5.0 (Windows NT 10.0; Win64; x64) AppleWebKit/537.36 (KHTML, like Gecko) Chrome/117.0.0.0 Safari/537.36" version="22.0.0" etag="NR_nvxb5sAc40EEAsOUb" type="github">
  <diagram name="Page-1" id="BJGrDA5BHudWndHW2Dt7">
    <mxGraphModel>
      <root>
        <mxCell id="0" />
        <mxCell id="1" parent="0" />
      </root>
    </mxGraphModel>
  </diagram>
</mxfile>
